<?xml version="1.0" encoding="UTF-8" standalone="no"?>
<!-- Created with Inkscape (http://www.inkscape.org/) -->

<svg
   width="108"
   height="108"
   viewBox="0 0 108 108"
   version="1.1"
   id="svg480"
   xmlns="http://www.w3.org/2000/svg"
   xmlns:svg="http://www.w3.org/2000/svg">
  <defs
     id="defs477" />
  <g
     id="layer1"
     transform="matrix(0.35891045,0,0,0.35615774,15.221334,17.530334)">
    <path
       style="fill:#000000;stroke-width:0.277113"
       d="M 100.687,201.92168 C 85.173372,200.62268 70.449606,196.11202 58.452167,188.98294 49.8751,183.88631 43.851572,179.08119 36.281705,171.29701 22.37793,156.99958 13.586934,139.33648 9.7596913,118.00827 9.1703391,114.72398 9.1350546,113.81161 9.1350546,101.85674 c 0,-11.988379 0.034747,-12.880525 0.6453403,-16.569246 C 12.267381,70.263041 19.414575,53.34607 28.251738,41.56695 41.333536,24.130123 61.05959,11.105637 82.43519,5.7913424 91.257232,3.5980506 98.691606,2.7178419 108.35433,2.7225917 c 11.93492,0.00587 21.44832,1.4984914 31.90407,5.0056537 15.69949,5.2660666 28.92511,13.6774396 40.46955,25.7382696 13.35136,13.948552 21.575,30.619484 25.35685,51.403264 0.7052,3.875575 0.73887,4.504898 0.83745,15.656201 0.0845,9.55699 0.0241,12.20028 -0.3405,14.8984 -1.38457,10.24684 -4.17386,19.81325 -8.28956,28.43061 -5.77542,12.09248 -13.60892,22.9136 -22.87453,31.5987 -16.47477,15.44255 -34.88686,23.87287 -57.28107,26.22718 -3.64732,0.38345 -14.0342,0.52678 -17.44959,0.24081 z m 4.14964,-37.05592 c -0.14871,-0.39136 -0.91635,-0.41886 -6.984134,-0.25018 -11.293429,0.31395 -24.58594,1.17978 -25.032285,1.63053 -0.180243,0.18201 2.162459,4.26262 4.121304,7.17865 6.684506,9.95086 12.769562,16.10605 19.057573,19.27724 2.34184,1.18105 4.149522,1.79581 6.654842,2.26322 1.89368,0.35328 1.89368,0.35328 2.12173,-14.65325 0.12543,-8.25359 0.15286,-15.20438 0.061,-15.44621 z m 9.47714,29.80646 c 5.32168,-1.29787 10.47153,-4.56219 16.06699,-10.18436 3.15005,-3.16509 5.39869,-5.96834 8.05439,-10.04094 1.91266,-2.93312 4.85659,-7.96836 4.85659,-8.30661 0,-0.328 -15.78887,-1.28183 -25.02513,-1.5118 -7.51442,-0.18711 -7.51442,-0.18711 -7.51442,15.32644 0,15.51357 0,15.51357 0.89622,15.33115 0.49291,-0.10033 1.69232,-0.37658 2.66536,-0.61388 z m 23.46279,-3.69571 c 11.99092,-4.01855 24.18904,-11.12658 32.14413,-18.7309 2.1737,-2.07785 2.32487,-2.28982 1.77867,-2.49386 -1.64867,-0.61588 -10.56985,-1.97178 -20.5485,-3.12307 -1.10303,-0.12727 -1.10303,-0.12727 -3.25969,3.85861 -2.56077,4.73273 -5.53914,9.32482 -8.40734,12.96256 -2.1439,2.71908 -6.79213,7.5872 -8.72661,9.1394 -1.09052,0.87503 -1.09052,0.87503 0.96516,0.30116 1.13062,-0.31563 3.855,-1.17688 6.05418,-1.9139 z m -55.199661,-0.63442 c -6.021185,-5.99871 -11.799743,-14.08574 -15.920544,-22.28063 -0.476419,-0.94743 -0.828551,-1.3201 -1.247381,-1.3201 -3.110233,0 -21.737117,2.98476 -21.583314,3.45848 0.153886,0.47401 4.621494,4.37661 7.503511,6.55458 7.232582,5.46572 15.33173,9.94448 23.712245,13.11268 3.269848,1.23614 9.369528,3.219 10.163932,3.30404 0.130134,0.014 -1.052663,-1.25914 -2.628449,-2.82905 z M 42.363998,163.70144 c 3.824558,-0.7197 13.668459,-2.14982 17.648568,-2.56398 1.744175,-0.18149 3.199242,-0.34939 3.233479,-0.3731 0.03424,-0.0237 -0.415971,-1.22619 -1.000463,-2.67217 -1.073917,-2.65676 -3.348697,-9.44547 -3.884051,-11.59132 -0.325554,-1.30491 0.02529,-1.1693 -5.656574,-2.18648 -4.379348,-0.78401 -13.588302,-3.18764 -17.747446,-4.63228 -5.362581,-1.86263 -8.08958,-3.00735 -11.876181,-4.98529 -1.732925,-0.90519 -3.183694,-1.61256 -3.22393,-1.57192 -0.08483,0.0857 2.407287,6.01999 3.854974,9.17964 2.790683,6.09078 7.801865,13.94208 12.797306,20.05024 1.413607,1.72849 1.883293,2.13112 2.361691,2.02455 0.328437,-0.0732 1.90012,-0.37822 3.492627,-0.67789 z M 179.72613,161.6592 c 5.83213,-7.12743 9.92908,-13.51764 13.62431,-21.25046 1.20365,-2.51881 2.94188,-6.84329 2.80587,-6.98063 -0.0395,-0.04 -0.87505,0.32993 -1.85673,0.82188 -4.96342,2.48728 -8.64249,3.95905 -13.93072,5.57278 -5.97089,1.82205 -10.90828,3.08997 -16.3952,4.21029 -2.65418,0.54193 -5.09461,1.04818 -5.42319,1.125 -0.49334,0.11534 -0.82365,0.82517 -1.89598,4.07441 -0.7142,2.16411 -1.95166,5.67313 -2.74988,7.79783 -1.45131,3.86309 -1.45131,3.86309 -0.54081,3.86309 2.77814,0 17.18845,2.08271 22.05386,3.18742 0.91,0.20663 1.72616,0.38853 1.81369,0.40422 0.0875,0.0157 1.21018,-1.25593 2.49478,-2.82583 z M 73.741993,159.71298 c 0.284995,-0.23886 0.513148,-0.23312 0.919403,0.0231 0.297188,0.18742 0.628364,0.2859 0.735945,0.21883 0.107579,-0.0671 3.049705,-0.26471 6.538052,-0.4392 3.488351,-0.17448 7.149054,-0.36704 8.134891,-0.4279 0.985838,-0.0609 4.739608,-0.1181 8.341708,-0.12719 6.549268,-0.0165 6.549268,-0.0165 6.549268,-4.75061 0,-4.0753 -0.059,-4.73407 -0.4243,-4.73407 -0.23337,0 -3.49077,-0.12577 -7.238672,-0.27948 -11.584698,-0.47514 -21.442603,-1.32587 -31.043285,-2.67905 -1.340932,-0.189 -1.340932,-0.189 -1.135792,0.7582 0.242726,1.12074 2.376658,7.47538 3.310512,9.85839 0.360124,0.91896 0.788504,2.03242 0.951956,2.47434 0.297178,0.80351 0.297178,0.80351 2.139217,0.61292 1.013123,-0.10481 2.012615,-0.33353 2.221097,-0.50826 z m 72.704727,-0.267 c 0.20392,-0.48975 0.30185,-1.07178 0.21763,-1.29341 -0.0842,-0.22162 0.0553,-0.55686 0.31009,-0.74497 0.42266,-0.31211 4.18199,-10.6644 3.95566,-10.89295 -0.0537,-0.0542 -2.13557,0.14458 -4.62635,0.44184 -9.78571,1.1679 -18.28566,1.85626 -25.89999,2.0975 -2.80585,0.0889 -6.12529,0.23144 -7.37655,0.31678 -2.27501,0.15516 -2.27501,0.15516 -2.27501,4.86423 0,4.70907 0,4.70907 2.97819,4.70907 1.98241,0 3.09114,-0.11406 3.31599,-0.34112 0.26656,-0.26918 0.45266,-0.26868 0.88243,0.002 0.42728,0.26946 0.65982,0.27084 1.07913,0.006 0.40864,-0.25771 0.68462,-0.26115 1.17198,-0.0146 0.3729,0.18862 3.38432,0.44228 7.25569,0.61117 7.15974,0.31233 16.7596,0.84067 17.64857,0.9713 0.30333,0.0446 0.65057,0.0981 0.77165,0.11898 0.12107,0.0208 0.38697,-0.36278 0.59089,-0.85254 z m -28.93843,-18.17185 c -4.19355,-2.0859 -6.27555,-3.50904 -7.50678,-5.13121 -1.84812,-2.43497 -1.8713,-4.62632 -0.0682,-6.44718 1.46,-1.47438 3.71669,-2.56993 10.88408,-5.28387 7.34411,-2.78085 9.83435,-3.97599 10.94412,-5.2524 0.80861,-0.93003 0.82196,-0.98566 0.32676,-1.36165 -2.28003,-1.73119 -7.44589,-3.50449 -13.58273,-4.66258 -5.47235,-1.03268 -5.89318,-0.95391 -2.86235,0.53575 3.17706,1.56153 4.76438,2.95179 4.75065,4.16083 -0.029,2.54911 -3.34972,3.95832 -18.08491,7.67464 -12.651522,3.19081 -15.89523,4.60446 -16.68675,7.27234 -0.491301,1.65597 0.207121,3.18565 2.400566,5.25772 2.019287,1.90755 5.704105,4.52953 6.735429,4.79268 0.379169,0.0968 6.459655,0.18765 13.512185,0.20199 12.82279,0.026 12.82279,0.026 9.23793,-1.75706 z m -31.607972,0.7766 c 0.61314,-0.16572 0.512187,-0.31564 -1.550961,-2.30343 -1.304699,-1.25706 -2.487114,-2.69133 -2.892586,-3.50873 -0.751701,-1.51539 -1.217848,-4.16147 -0.781116,-4.43405 0.148777,-0.0928 0.213711,-0.32145 0.144314,-0.50799 -0.295889,-0.7953 2.010133,-4.37706 2.818045,-4.37706 0.201064,0 0.365576,-0.13347 0.365576,-0.29659 0,-0.39611 3.71388,-2.11171 5.394951,-2.49216 0.736224,-0.16661 1.46775,-0.41 1.625618,-0.54086 0.431987,-0.35807 3.372092,-1.17133 4.664363,-1.29021 1.409961,-0.12972 3.711293,-0.62748 4.446958,-0.96186 0.87728,-0.39875 4.2985,-1.11946 4.55478,-0.9595 0.12809,0.0799 0.30325,0.0304 0.38924,-0.11012 0.086,-0.14052 0.55992,-0.25195 1.05316,-0.24764 1.2959,0.0114 5.20365,-0.87101 5.91969,-1.33663 0.33592,-0.21843 0.80126,-0.39715 1.0341,-0.39715 0.23284,0 0.42334,-0.0983 0.42334,-0.2184 0,-0.35018 -3.08151,-1.72949 -4.28065,-1.91606 -0.60316,-0.0938 -1.24316,-0.28668 -1.42224,-0.42853 -0.17906,-0.14185 -0.73747,-0.26638 -1.24091,-0.27673 -0.50343,-0.0103 -1.02692,-0.0838 -1.1633,-0.16328 -0.13637,-0.0794 -0.75282,-0.19037 -1.36988,-0.2465 -0.61706,-0.0561 -1.23412,-0.21536 -1.37125,-0.35384 -0.13713,-0.13848 -0.42193,-0.1849 -0.63288,-0.10316 -0.21095,0.0817 -0.53708,0.0236 -0.72473,-0.12909 -0.36362,-0.29599 -4.114105,-1.01153 -5.016381,-0.95707 -0.29635,0.0178 -0.668624,-0.0689 -0.827282,-0.19298 -0.628493,-0.49134 -11.665366,-2.09161 -12.416911,-1.80038 -0.234082,0.0907 -0.597609,0.0208 -0.807842,-0.15542 -0.210225,-0.17619 -0.984219,-0.30899 -1.719982,-0.2951 -0.735757,0.0139 -2.392521,-0.11421 -3.681695,-0.28464 -1.289172,-0.17042 -5.198054,-0.34096 -8.686405,-0.37898 -3.488348,-0.038 -6.539518,-0.16136 -6.78038,-0.27409 -0.418457,-0.19586 -8.773076,-0.0662 -12.24698,0.19004 -0.910005,0.0671 -2.996583,0.19692 -4.636836,0.28844 -1.640256,0.0915 -3.129354,0.26011 -3.309106,0.37467 -0.179755,0.11454 -1.056718,0.24061 -1.948808,0.28013 -0.892092,0.0396 -1.785798,0.20916 -1.986018,0.37697 -0.200222,0.1678 -0.607732,0.22698 -0.905581,0.13152 -0.297848,-0.0955 -0.6123,-0.0579 -0.698781,0.0833 -0.08648,0.14131 -0.664422,0.26399 -1.284316,0.27263 -0.619894,0.009 -1.302548,0.16277 -1.517011,0.34251 -0.214463,0.17974 -0.558976,0.26129 -0.765584,0.18124 -0.426923,-0.16545 -2.935778,0.31454 -3.354117,0.64169 -0.151667,0.1186 -0.585987,0.21461 -0.965155,0.21334 -1.04426,-0.003 -8.087719,1.48753 -8.466353,1.79224 -0.182306,0.14671 -0.591558,0.18339 -0.909449,0.0815 -0.318117,-0.10195 -0.756401,-0.0358 -0.974808,0.14733 -0.219031,0.18357 -0.699735,0.25581 -1.072903,0.16122 -0.371843,-0.0942 -0.736424,-0.0728 -0.81018,0.0478 -0.153046,0.25007 0.291322,2.7057 0.641017,3.54233 0.128038,0.30633 0.508346,1.27964 0.84513,2.16293 0.336785,0.88329 0.728812,1.67866 0.87117,1.76752 0.142359,0.0888 0.373467,0.46601 0.513573,0.83815 0.140105,0.37214 0.473703,0.76838 0.741326,0.88054 0.267625,0.11217 1.374482,0.79641 2.459684,1.52055 1.70116,1.13515 3.631929,2.12589 9.05726,4.64755 1.476432,0.68624 3.879821,1.51727 8.686404,3.00354 2.199179,0.68002 4.218379,1.35439 4.487111,1.4986 0.268735,0.14421 1.07533,0.33939 1.792432,0.43374 0.717106,0.0944 1.427919,0.26374 1.579586,0.37643 0.151668,0.11268 0.896217,0.29507 1.654552,0.40529 0.758338,0.11024 1.530553,0.32655 1.716037,0.4807 0.185481,0.15414 0.805939,0.27956 1.378795,0.27871 0.572852,-7.9e-4 1.165643,0.0975 1.31731,0.21847 0.371398,0.29632 1.598478,0.53933 3.536169,0.70029 0.883221,0.0733 1.751862,0.22522 1.930314,0.33745 0.178448,0.11224 0.591809,0.16921 0.918575,0.1266 0.326765,-0.0426 0.67199,0.0498 0.767166,0.20528 0.09518,0.15552 0.355212,0.21217 0.577857,0.12589 0.222643,-0.0863 0.621967,-0.0622 0.887385,0.0536 0.265417,0.11574 0.749932,0.18441 1.076698,0.15259 0.326766,-0.0318 0.672828,0.0707 0.769028,0.22795 0.0962,0.15718 0.527323,0.21462 0.958049,0.12762 0.430727,-0.087 0.86251,-0.0285 0.959516,0.13003 0.09712,0.15868 0.59207,0.22007 1.101424,0.13659 0.527273,-0.0864 1.004008,-0.0226 1.108675,0.14846 0.101867,0.16645 0.532321,0.22962 0.966767,0.14188 0.430728,-0.087 0.862511,-0.0285 0.959517,0.13001 0.09712,0.15869 0.59207,0.22007 1.101424,0.13661 0.540952,-0.0887 1.003761,-0.023 1.114625,0.15817 0.117115,0.19136 0.591616,0.24485 1.241339,0.13993 0.636482,-0.10278 1.124612,-0.0508 1.236269,0.13165 0.113199,0.18497 0.645434,0.23769 1.377069,0.13642 0.73705,-0.10202 1.263691,-0.0489 1.378793,0.13924 0.11624,0.18992 0.64669,0.24057 1.411313,0.13473 0.762671,-0.10557 1.370156,-0.048 1.609458,0.15258 0.251067,0.21042 0.909076,0.25989 1.89711,0.14262 1.000104,-0.1187 1.577514,-0.0737 1.703919,0.13288 0.211921,0.34627 1.053047,0.39847 2.055386,0.12756 z m 46.239522,-0.1203 c 0.11914,-0.19467 0.6305,-0.23796 1.41228,-0.11957 0.79955,0.12108 1.36384,0.0697 1.62345,-0.14791 0.25509,-0.21379 0.80434,-0.26786 1.53028,-0.15063 0.713,0.11514 1.27555,0.0628 1.51902,-0.14122 0.24168,-0.20256 0.84598,-0.26048 1.61173,-0.15449 0.73439,0.10165 1.29606,0.0536 1.4023,-0.12001 0.0975,-0.15927 0.50617,-0.26345 0.90822,-0.23152 0.40204,0.0319 0.95197,-0.0375 1.22208,-0.15423 0.27009,-0.11677 0.85471,-0.13886 1.29915,-0.0491 0.45672,0.0922 0.88793,0.0328 0.99171,-0.13685 0.10467,-0.17102 0.5814,-0.23486 1.10867,-0.14845 0.50878,0.0834 1.00358,0.0233 1.09957,-0.13355 0.099,-0.16172 0.56933,-0.21035 1.08658,-0.11236 0.54333,0.10294 0.98716,0.0501 1.09779,-0.13067 0.10215,-0.16691 0.45307,-0.2822 0.77985,-0.2562 0.32676,0.026 0.65616,0.019 0.73199,-0.0156 0.0758,-0.0346 0.7637,-0.10005 1.5286,-0.14557 0.76489,-0.0455 2.03541,-0.29573 2.82337,-0.55599 0.78798,-0.26027 1.61625,-0.40208 1.84063,-0.31513 0.22437,0.087 0.48582,0.0309 0.581,-0.12466 0.0952,-0.15552 0.4404,-0.2479 0.76717,-0.20529 0.32676,0.0426 0.71821,0.002 0.86988,-0.0919 0.33402,-0.20512 3.14431,-0.75363 3.72274,-0.7266 0.69564,0.0325 3.7032,-0.66288 4.03316,-0.9325 0.17072,-0.13952 0.90291,-0.31421 1.62709,-0.3882 0.72417,-0.074 1.47951,-0.27101 1.67853,-0.43781 0.19902,-0.16679 0.88023,-0.35369 1.51381,-0.41531 0.63358,-0.0617 1.28971,-0.22216 1.45805,-0.35672 0.16834,-0.13458 1.29881,-0.5242 2.51215,-0.86585 1.21334,-0.34164 2.45425,-0.73254 2.75758,-0.86867 0.30334,-0.13612 1.54426,-0.57136 2.75759,-0.9672 1.21334,-0.39583 2.59711,-0.89812 3.07503,-1.11618 0.47792,-0.21807 0.96614,-0.39649 1.08491,-0.39649 0.21288,0 2.28004,-0.90869 3.21287,-1.41232 0.26337,-0.14219 0.72138,-0.25853 1.01783,-0.25853 0.29644,0 0.61451,-0.12342 0.70684,-0.27427 0.13964,-0.22816 2.32213,-1.63383 4.59436,-2.95907 0.74915,-0.43692 1.88855,-1.55085 1.88855,-1.84632 0,-0.13668 0.3065,-0.65433 0.68112,-1.15031 0.83376,-1.10389 1.93913,-3.5218 1.8399,-4.02463 -0.04,-0.20282 0.0548,-0.52403 0.21079,-0.71379 0.15596,-0.18978 0.21069,-0.79857 0.12162,-1.35288 -0.14876,-0.92577 -0.2547,-1.02384 -1.30088,-1.20427 -0.62641,-0.10802 -1.47801,-0.1876 -1.89247,-0.17683 -0.41444,0.0108 -0.82171,-0.0918 -0.90504,-0.22797 -0.0833,-0.13615 -0.33525,-0.17634 -0.55982,-0.0893 -0.22458,0.087 -0.56186,0.0396 -0.74951,-0.10539 -0.43747,-0.33802 -3.42004,-0.99455 -4.40384,-0.96939 -0.41445,0.0106 -0.82507,-0.0976 -0.91249,-0.24045 -0.0874,-0.14283 -0.68522,-0.2597 -1.32843,-0.2597 -0.64322,0 -1.30112,-0.13293 -1.46201,-0.2954 -0.16087,-0.16246 -0.83717,-0.30129 -1.50288,-0.3085 -0.6657,-0.007 -1.33981,-0.11874 -1.49802,-0.24784 -0.42715,-0.34857 -8.66835,-1.35004 -9.71114,-1.18009 -0.51342,0.0837 -1.07217,7.9e-4 -1.30325,-0.19256 -0.29684,-0.24878 -2.51641,-0.34036 -8.33918,-0.34408 -10.00264,-0.006 -10.57784,0.0137 -11.0197,0.38399 -0.20461,0.17147 -0.74166,0.22809 -1.2294,0.12958 -0.49445,-0.0999 -1.02511,-0.0416 -1.23671,0.13572 -0.20386,0.17085 -0.55446,0.23941 -0.77911,0.15236 -0.74809,-0.2899 -14.04653,2.12818 -14.7082,2.67442 -0.28112,0.23208 -0.17903,0.4793 0.48258,1.16862 0.46151,0.48086 0.83911,1.06255 0.83911,1.29265 0,0.23011 0.12441,0.54402 0.27646,0.69757 0.35674,0.36025 -0.16077,3.29367 -0.73802,4.18333 -0.50492,0.77821 -2.76562,2.33227 -3.39276,2.33227 -0.24787,0 -0.86707,0.31024 -1.37602,0.68942 -0.50893,0.37917 -1.37065,0.82858 -1.91494,0.99868 -0.54428,0.17009 -1.38064,0.48642 -1.85855,0.70295 -0.47793,0.21654 -0.99113,0.3937 -1.14046,0.3937 -0.14933,0 -0.62694,0.1872 -1.06136,0.41599 -0.43442,0.2288 -1.0087,0.41677 -1.27618,0.41772 -0.26747,7.9e-4 -0.73281,0.12702 -1.0341,0.28019 -0.30127,0.15316 -0.79427,0.40379 -1.09555,0.55695 -0.30127,0.15315 -0.80951,0.27847 -1.12942,0.27847 -0.31991,0 -0.91104,0.17829 -1.3136,0.39619 -1.5518,0.83993 -3.27092,1.55313 -3.74373,1.55313 -0.57576,0 -2.64127,1.57734 -2.64127,2.01701 0,0.66145 2.7513,2.84583 4.86641,3.86368 1.23569,0.59466 2.39498,1.08118 2.57622,1.08118 0.18123,0 0.64502,0.25063 1.03065,0.55695 0.38562,0.30632 0.92393,0.55695 1.19622,0.55695 0.2723,0 1.27932,0.36202 2.23783,0.80449 0.9585,0.44247 2.54932,1.08932 3.53516,1.43744 0.98584,0.34812 1.91032,0.73798 2.05441,0.86635 0.36544,0.32561 0.91111,0.29107 1.13315,-0.0717 z m 69.53604,-42.579965 c -0.26245,-12.187994 -2.01856,-18.639741 -6.01434,-22.09591 -4.11231,-3.556963 -14.00949,-8.344874 -22.44996,-10.860504 -8.74468,-2.606298 -20.60686,-4.962811 -31.71227,-6.299883 -3.90755,-0.47046 -15.6504,-1.351675 -22.7501,-1.707223 -12.6408,-0.633042 -31.79841,0.09339 -44.948699,1.704406 -13.864766,1.698543 -28.73376,4.975511 -37.503207,8.265306 -4.318432,1.62003 -11.799412,5.433629 -14.221976,7.249972 -2.709462,2.031449 -5.415914,5.476539 -6.027891,7.673013 -0.980573,3.519423 -1.809072,12.366212 -1.810174,19.329198 -6.62e-4,4.23303 -6.62e-4,4.23303 2.963738,2.47879 11.151907,-6.599355 16.895313,-9.882833 17.814734,-10.184596 1.250029,-0.410271 2.583706,-0.240926 4.527697,0.574911 1.40987,0.591694 1.40987,0.591694 2.322035,-0.04934 1.059899,-0.744864 7.167079,-5.680383 13.872836,-11.211337 5.585606,-4.607051 6.409197,-5.050475 8.976694,-4.833106 1.013025,0.08577 2.278204,0.340041 2.811506,0.565069 0.533303,0.22502 4.598255,3.711171 9.033231,7.747005 4.434971,4.035833 8.450017,7.588505 8.922315,7.894823 0.710132,0.460578 1.48347,0.581045 4.469272,0.696191 3.610542,0.139239 3.610542,0.139239 6.231026,2.128596 1.441267,1.094156 4.560553,3.316904 6.931733,4.939454 4.75631,3.25463 4.49704,3.18726 6.80777,1.76905 9.32561,-5.723551 24.65185,-16.455467 31.3017,-21.91844 3.23958,-2.66137 3.22494,-2.65515 6.19299,-2.631674 2.92213,0.02313 3.32678,0.167901 5.38889,1.92826 3.51452,3.000242 16.06045,13.051604 16.60659,13.304623 0.49009,0.227057 1.04146,0.09463 2.75758,-0.662319 1.77036,-0.78086 2.48381,-0.946116 4.0847,-0.946116 1.80825,0 2.15393,0.108019 5.10154,1.594021 2.97277,1.498696 11.77959,6.357595 17.63919,9.731895 2.05615,1.18405 2.64209,1.41607 2.72374,1.07854 0.0572,-0.23652 0.0379,-3.50022 -0.0429,-7.252671 z m -97.59472,-2.918407 c -3.12802,-0.803152 -5.104014,-1.943234 -7.41783,-4.279839 -2.347499,-2.370618 -3.698372,-4.753883 -4.516141,-7.967517 -0.547957,-2.153342 -0.542727,-6.423475 0.01047,-8.579521 1.440728,-5.614722 6.312033,-10.727431 11.643301,-12.22031 2.05417,-0.57521 6.02901,-0.681501 8.05423,-0.215377 5.36727,1.235322 10.68029,6.670555 11.98519,12.260853 0.53728,2.301768 0.53995,6.634711 0.005,8.754355 -1.35206,5.361143 -5.82242,10.248131 -10.83075,11.840132 -2.41181,0.766643 -6.76182,0.964927 -8.9339,0.407224 z m -26.147265,1.143855 c -0.832521,-0.822847 -3.789456,-3.712308 -6.570967,-6.421024 -5.777283,-5.62609 -6.036779,-5.753804 -6.546526,-3.221891 -0.851726,4.230502 -0.869358,4.437303 -0.412947,4.84328 0.588491,0.523459 5.009745,2.711937 7.053104,3.49121 0.910004,0.34705 1.902736,0.741241 2.206072,0.87598 1.268151,0.563292 4.994756,1.884796 5.374301,1.905802 0.225851,0.01255 -0.270515,-0.65051 -1.103037,-1.473357 z m 83.690635,0.312562 c -0.19247,-0.669132 -0.83212,-1.296797 -3.02817,-2.971453 -0.75834,-0.57829 -2.86789,-2.396582 -4.6879,-4.040642 -1.82001,-1.644059 -3.61934,-3.117685 -3.9985,-3.274731 -0.37917,-0.157039 -0.90404,-0.396828 -1.16638,-0.53287 -0.5331,-0.27644 -0.97481,0.247565 -1.71142,2.03031 -0.41521,1.004886 -0.40881,1.039153 0.29879,1.601237 0.39769,0.315901 0.88631,0.574374 1.08582,0.574374 0.19951,0 0.46198,0.178944 0.58327,0.397649 0.29724,0.535987 2.47086,2.108624 2.91444,2.108624 0.1951,0 0.57852,0.263929 0.85203,0.586516 0.54469,0.642419 4.91271,2.795587 6.66177,3.283833 0.60411,0.168643 1.28453,0.430053 1.51203,0.580903 0.66082,0.438191 0.87779,0.329186 0.68422,-0.34375 z M 22.866223,67.828765 c 2.696338,-1.616295 8.082436,-4.030996 13.017443,-5.835991 5.112389,-1.869875 12.766576,-3.894585 20.913086,-5.531999 1.875287,-0.376923 1.396072,0.458555 4.60984,-8.037 1.180633,-3.120998 2.07435,-5.864689 1.986038,-6.097096 -0.08831,-0.232407 0.04516,-0.574467 0.296603,-0.760141 0.375406,-0.277206 10e-4,-0.371984 -2.092325,-0.529924 -5.240607,-0.395366 -14.99951,-1.857605 -19.569655,-2.932241 -2.144706,-0.504316 -2.144706,-0.504316 -4.530272,2.24122 -5.035436,5.795258 -9.427441,12.20116 -12.674884,18.486792 -1.530454,2.96229 -4.794567,10.194548 -4.794567,10.623269 0,0.08913 0.315703,-0.04683 0.701562,-0.302144 0.385859,-0.255314 1.347568,-0.85145 2.137131,-1.324745 z m 172.819707,1.592912 c 0,-0.367044 -1.8671,-4.799086 -3.22009,-7.643715 -2.74628,-5.773972 -6.24487,-11.546414 -9.96768,-16.445993 -2.88993,-3.803413 -6.49368,-7.822742 -6.87977,-7.673128 -1.67484,0.649027 -14.34865,2.703366 -20.07044,3.253281 -3.59992,0.345986 -3.59992,0.345986 -2.45651,3.145919 0.62889,1.539959 1.84619,4.93231 2.70514,7.538554 1.56173,4.738621 1.56173,4.738621 4.95474,5.350837 7.86257,1.41867 16.40188,3.914311 23.07882,6.744851 3.65664,1.550154 10.93426,5.203603 11.18649,5.615752 0.15681,0.256228 0.6693,0.343246 0.6693,0.113642 z M 150.18572,54.831695 c 0,-0.467335 -2.72549,-8.281656 -3.72769,-10.687764 -1.01447,-2.435562 -1.01447,-2.435562 -2.02144,-2.304251 -4.05925,0.52935 -18.53327,1.25711 -25.02456,1.25825 -1.9863,2.09e-4 -4.74733,0.08205 -6.13564,0.181567 -2.52419,0.18094 -2.52419,0.18094 -2.52419,4.413093 0,4.232156 0,4.232156 5.99776,4.427457 9.5261,0.310193 21.94573,1.33033 29.15849,2.395047 4.07605,0.601691 4.27727,0.616585 4.27727,0.316601 z M 68.147452,54.523922 c 7.527909,-1.211946 24.7104,-2.490275 33.711528,-2.508044 3.10228,-0.0062 3.10228,-0.0062 3.10228,-4.416654 0,-4.410532 0,-4.410532 -9.168978,-4.603623 C 90.749336,42.8894 84.637836,42.686728 82.211154,42.545217 69.898759,41.827229 70.666208,41.816381 70.314371,42.713395 c -1.270138,3.238271 -4.201351,10.944578 -4.356906,11.454538 -0.221427,0.725894 -0.164816,0.735099 2.189987,0.355989 z M 104.96126,23.163137 c 0,-14.0874531 0,-14.0874531 -1.17197,-13.9075603 -5.565737,0.8543183 -7.336153,1.4811363 -10.964902,3.8821353 -5.748441,3.803524 -10.857337,9.076008 -14.999869,15.480161 -1.956727,3.025004 -4.386997,7.245082 -4.251259,7.382158 0.112284,0.113388 8.396214,0.653068 14.566708,0.948985 2.502513,0.120016 7.311064,0.236963 10.685657,0.259891 6.135635,0.04168 6.135635,0.04168 6.135635,-14.04577 z m 21.96145,13.667669 c 10.26661,-0.407363 15.13051,-0.742936 15.45039,-1.065968 0.27795,-0.280696 -3.618,-6.654199 -6.07101,-9.931713 C 128.73808,15.726654 120.68067,10.103698 112.19993,9.013147 110.7522,8.8269803 110.7522,8.8269803 110.7522,23.038786 c 0,16.374697 -2.17463,14.51993 16.17051,13.79202 z M 68.56109,32.161882 c 3.622041,-6.87546 8.29147,-13.328729 12.891108,-17.815841 1.216761,-1.187 2.15415,-2.15818 2.083088,-2.15818 -0.427961,0 -4.720404,1.221647 -6.701429,1.907255 -5.605031,1.939831 -13.005182,5.358423 -18.337964,8.47145 -4.983785,2.909299 -13.697863,9.49027 -13.180155,9.953801 0.476362,0.426514 17.098745,2.849963 20.625645,3.007102 0.785693,0.035 0.917368,-0.134157 2.619707,-3.365587 z m 85.48525,2.859702 c 2.7852,-0.262906 12.28533,-1.5716 15.68887,-2.161226 1.21153,-0.209883 1.21153,-0.209883 -0.4957,-1.806043 -5.39951,-5.048229 -15.13621,-11.124011 -23.2637,-14.516743 -4.42578,-1.847493 -13.58871,-4.847964 -13.8865,-4.547241 -0.0588,0.05936 0.64703,0.71858 1.56847,1.464922 4.38711,3.553424 9.561,10.477386 14.17858,18.974492 1.47321,2.710939 1.72329,3.027047 2.34395,2.962943 0.38214,-0.03947 2.12186,-0.206465 3.86603,-0.371104 z"
       id="path444" />
  </g>
</svg>
